<?xml version="1.0" encoding="UTF-8"?>
<svg id="Layer_1" data-name="Layer 1" xmlns="http://www.w3.org/2000/svg" xmlns:xlink="http://www.w3.org/1999/xlink" viewBox="0 0 1000 1000">
  <defs>
    <style>
      .cls-1 {
        fill: url(#linear-gradient);
      }

      .cls-1, .cls-2, .cls-3, .cls-4, .cls-5 {
        stroke-width: 0px;
      }

      .cls-2 {
        fill: #ffe746;
        filter: url(#drop-shadow-1);
      }

      .cls-3 {
        fill: url(#linear-gradient-2);
      }

      .cls-4 {
        fill: url(#linear-gradient-3);
      }

      .cls-5 {
        fill: url(#radial-gradient);
      }
    </style>
    <linearGradient id="linear-gradient" x1="180.32" y1="500" x2="819.68" y2="500" gradientUnits="userSpaceOnUse">
      <stop offset=".7" stop-color="#ffe746"/>
      <stop offset=".84" stop-color="#fee544"/>
      <stop offset=".9" stop-color="#fdde3e"/>
      <stop offset=".93" stop-color="#fbd233"/>
      <stop offset=".96" stop-color="#f9c123"/>
      <stop offset=".99" stop-color="#f5ab0f"/>
      <stop offset="1" stop-color="#f49f04"/>
    </linearGradient>
    <linearGradient id="linear-gradient-2" x1="189.08" y1="882.5" x2="826.91" y2="244.67" gradientUnits="userSpaceOnUse">
      <stop offset="0" stop-color="#f49f04"/>
      <stop offset=".08" stop-color="#f6ad11" stop-opacity=".8"/>
      <stop offset=".16" stop-color="#f8ba1d" stop-opacity=".61"/>
      <stop offset=".25" stop-color="#fac628" stop-opacity=".45"/>
      <stop offset=".34" stop-color="#fbd031" stop-opacity=".31"/>
      <stop offset=".43" stop-color="#fcd839" stop-opacity=".2"/>
      <stop offset=".54" stop-color="#fddf3e" stop-opacity=".11"/>
      <stop offset=".66" stop-color="#fee342" stop-opacity=".05"/>
      <stop offset=".79" stop-color="#fee645" stop-opacity=".01"/>
      <stop offset="1" stop-color="#ffe746" stop-opacity="0"/>
    </linearGradient>
    <linearGradient id="linear-gradient-3" x1="252.67" y1="308.26" x2="763.32" y2="818.91" gradientUnits="userSpaceOnUse">
      <stop offset="0" stop-color="#f49f04"/>
      <stop offset=".04" stop-color="#f4a409" stop-opacity=".92"/>
      <stop offset=".17" stop-color="#f7b519" stop-opacity=".68"/>
      <stop offset=".29" stop-color="#f9c426" stop-opacity=".47"/>
      <stop offset=".42" stop-color="#fbd132" stop-opacity=".3"/>
      <stop offset=".54" stop-color="#fdda3a" stop-opacity=".17"/>
      <stop offset=".66" stop-color="#fee140" stop-opacity=".08"/>
      <stop offset=".77" stop-color="#fee544" stop-opacity=".02"/>
      <stop offset=".86" stop-color="#ffe746" stop-opacity="0"/>
    </linearGradient>
    <radialGradient id="radial-gradient" cx="627.21" cy="501.61" fx="627.21" fy="501.61" r="190.59" gradientTransform="translate(-.36 -255.91) rotate(-.03) scale(1 1.51)" gradientUnits="userSpaceOnUse">
      <stop offset=".12" stop-color="#ffe746"/>
      <stop offset=".55" stop-color="#fee544"/>
      <stop offset=".7" stop-color="#fdde3e"/>
      <stop offset=".8" stop-color="#fbd233"/>
      <stop offset=".89" stop-color="#f9c123"/>
      <stop offset=".97" stop-color="#f5ab0f"/>
      <stop offset="1" stop-color="#f49f04"/>
    </radialGradient>
    <filter id="drop-shadow-1" filterUnits="userSpaceOnUse">
      <feOffset dx="7" dy="27"/>
      <feGaussianBlur result="blur" stdDeviation="17"/>
      <feFlood flood-color="#f49f04" flood-opacity=".82"/>
      <feComposite in2="blur" operator="in"/>
      <feComposite in="SourceGraphic"/>
    </filter>
  </defs>
  <path class="cls-1" d="M584.52,207.78h62.39c92.49,0,168.02,72.68,172.55,164.05.14-.68.22-1.38.22-2.11v-49.22c0-110.73-89.76-200.5-200.5-200.5h-169.66c-2.33,0-4.61.5-6.68,1.46-1.7.76-3.29,1.84-4.63,3.19l-253.15,251.2c-1.38,1.36-2.49,2.95-3.27,4.69-.98,2.06-1.48,4.35-1.48,6.68v482.11c0,5.87,4.79,10.67,10.67,10.67h428.2c110.73,0,200.5-89.78,200.5-200.5v-56.82c0,47.7-19.35,90.91-50.61,122.16-31.26,31.28-74.44,50.61-122.16,50.61h-62.39c-82.7,0-149.77-67.07-149.77-149.77v-288.13c0-82.7,67.07-149.77,149.77-149.77ZM409.55,672.97c0,3.33-2.71,6.01-6.01,6.01h-139.1c-3.31,0-6.01-2.69-6.01-6.01v-14.58c0-3.33,2.71-6.01,6.01-6.01h139.1c3.31,0,6.01,2.69,6.01,6.01v14.58ZM409.55,580.32c0,3.33-2.71,6.01-6.01,6.01h-139.1c-3.31,0-6.01-2.69-6.01-6.01v-14.6c0-3.31,2.71-6.01,6.01-6.01h139.1c3.31,0,6.01,2.71,6.01,6.01v14.6ZM409.55,491.26c0,3.31-2.71,6.01-6.01,6.01h-139.1c-3.31,0-6.01-2.71-6.01-6.01v-14.6c0-3.33,2.71-6.01,6.01-6.01h139.1c3.31,0,6.01,2.69,6.01,6.01v14.6Z"/>
  <path class="cls-3" d="M584.52,207.78h62.39c92.49,0,168.02,72.68,172.55,164.05.14-.68.22-1.38.22-2.11v-49.22c0-110.73-89.76-200.5-200.5-200.5h-169.66c-2.33,0-4.61.5-6.68,1.46-1.7.76-3.29,1.84-4.63,3.19l-253.15,251.2c-1.38,1.36-2.49,2.95-3.27,4.69-.98,2.06-1.48,4.35-1.48,6.68v482.11c0,5.87,4.79,10.67,10.67,10.67h428.2c110.73,0,200.5-89.78,200.5-200.5v-56.82c0,47.7-19.35,90.91-50.61,122.16-31.26,31.28-74.44,50.61-122.16,50.61h-62.39c-82.7,0-149.77-67.07-149.77-149.77v-288.13c0-82.7,67.07-149.77,149.77-149.77ZM409.55,672.97c0,3.33-2.71,6.01-6.01,6.01h-139.1c-3.31,0-6.01-2.69-6.01-6.01v-14.58c0-3.33,2.71-6.01,6.01-6.01h139.1c3.31,0,6.01,2.69,6.01,6.01v14.58ZM409.55,580.32c0,3.33-2.71,6.01-6.01,6.01h-139.1c-3.31,0-6.01-2.69-6.01-6.01v-14.6c0-3.31,2.71-6.01,6.01-6.01h139.1c3.31,0,6.01,2.71,6.01,6.01v14.6ZM409.55,491.26c0,3.31-2.71,6.01-6.01,6.01h-139.1c-3.31,0-6.01-2.71-6.01-6.01v-14.6c0-3.33,2.71-6.01,6.01-6.01h139.1c3.31,0,6.01,2.69,6.01,6.01v14.6Z"/>
  <path class="cls-4" d="M584.52,207.78h62.39c92.49,0,168.02,72.68,172.55,164.05.14-.68.22-1.38.22-2.11v-49.22c0-110.73-89.76-200.5-200.5-200.5h-169.66c-2.33,0-4.61.5-6.68,1.46-1.7.76-3.29,1.84-4.63,3.19l-253.15,251.2c-1.38,1.36-2.49,2.95-3.27,4.69-.98,2.06-1.48,4.35-1.48,6.68v482.11c0,5.87,4.79,10.67,10.67,10.67h428.2c110.73,0,200.5-89.78,200.5-200.5v-56.82c0,47.7-19.35,90.91-50.61,122.16-31.26,31.28-74.44,50.61-122.16,50.61h-62.39c-82.7,0-149.77-67.07-149.77-149.77v-288.13c0-82.7,67.07-149.77,149.77-149.77ZM409.55,672.97c0,3.33-2.71,6.01-6.01,6.01h-139.1c-3.31,0-6.01-2.69-6.01-6.01v-14.58c0-3.33,2.71-6.01,6.01-6.01h139.1c3.31,0,6.01,2.69,6.01,6.01v14.58ZM409.55,580.32c0,3.33-2.71,6.01-6.01,6.01h-139.1c-3.31,0-6.01-2.69-6.01-6.01v-14.6c0-3.31,2.71-6.01,6.01-6.01h139.1c3.31,0,6.01,2.71,6.01,6.01v14.6ZM409.55,491.26c0,3.31-2.71,6.01-6.01,6.01h-139.1c-3.31,0-6.01-2.71-6.01-6.01v-14.6c0-3.33,2.71-6.01,6.01-6.01h139.1c3.31,0,6.01,2.69,6.01,6.01v14.6Z"/>
  <path class="cls-5" d="M819.68,617.23v5.45c0,47.7-19.35,90.91-50.61,122.16-31.26,31.28-74.44,50.61-122.16,50.61h-62.39c-82.7,0-149.77-67.07-149.77-149.77v-288.13c0-82.7,67.07-149.77,149.77-149.77h62.39c92.49,0,168.02,72.68,172.55,164.05v.04c-.98,4.85-5.29,8.52-10.45,8.52h-69.79c-2.93,0-5.61-1.2-7.54-3.13-1.92-1.92-3.13-4.61-3.13-7.54,0-62.01-50.26-112.28-112.28-112.28h-21.45c-61.99,0-112.28,50.26-112.28,112.28v265.34c0,61.99,50.28,112.28,112.28,112.28h21.45c62.01,0,112.28-50.28,112.28-112.28v-17.82h91.13Z"/>
  <path class="cls-2" d="M442.86,121.46v188.23c0,39.14-31.74,70.86-70.88,70.86h-190.17c.78-1.74,1.88-3.33,3.27-4.69l253.15-251.2c1.34-1.34,2.93-2.43,4.63-3.19Z"/>
</svg>